<svg width="36" height="26" viewBox="0 0 36 26" fill="none" xmlns="http://www.w3.org/2000/svg">
<path fill-rule="evenodd" clip-rule="evenodd" d="M14.9759 3.40749C14.9759 2.51028 14.8757 1.8326 14.6752 1.37445C14.4747 0.897215 14.2141 0.563147 13.8934 0.372252C13.5525 0.162268 13.1616 0.0477302 12.7206 0.0286398C12.2595 0.00955046 11.7783 5.51012e-06 11.2771 5.51012e-06L3.69884 0C3.19765 0 2.7165 0.00954495 2.2554 0.0286342C1.81435 0.0477247 1.42342 0.162262 1.0826 0.372247C0.761839 0.563142 0.501218 0.89721 0.30074 1.37445C0.100262 1.8326 2.28053e-05 2.51028 2.28053e-05 3.40748L0 25.9713L2.85683 26V14.2599L9.76353 14.3172C10.2447 14.3363 10.6356 14.4794 10.9363 14.7467C11.2571 15.0139 11.5077 15.3385 11.6881 15.7203C11.8685 16.102 11.9888 16.522 12.049 16.9802C12.1292 17.4192 12.1693 17.8392 12.1693 18.2401V22.6498C12.1693 23.5279 12.2695 24.196 12.47 24.6542C12.6705 25.1123 12.9411 25.4368 13.2819 25.6277C13.6428 25.8377 14.0437 25.9522 14.4848 25.9713C14.9258 25.9904 15.3869 26 15.8681 26H17.8829V23.4229H16.5898C16.269 23.4229 15.9984 23.3847 15.7779 23.3083C15.5774 23.232 15.417 23.0888 15.2967 22.8788C15.1764 22.6688 15.0862 22.3634 15.0261 21.9625C14.986 21.5807 14.9659 21.0749 14.9659 20.4449V16.7797C14.9659 16.2452 14.8958 15.768 14.7554 15.348C14.6351 14.928 14.4748 14.5653 14.2743 14.2599C14.0738 13.9545 13.8533 13.6968 13.6127 13.4868C13.3922 13.2768 13.1917 13.1145 13.0113 13C13.1917 12.8855 13.3922 12.7232 13.6127 12.5132C13.8533 12.3032 14.0738 12.0455 14.2743 11.7401C14.4748 11.4346 14.6351 11.0719 14.7554 10.652C14.8958 10.232 14.9659 9.74522 14.9659 9.19162L14.9759 3.40749ZM10.9363 11.3678C10.6356 11.616 10.2447 11.7496 9.76353 11.7687L2.85683 11.7401V3.98017C2.91698 3.59838 3.00719 3.30249 3.12748 3.09251C3.24777 2.86343 3.40815 2.72026 3.60863 2.66299C3.82915 2.58663 4.0998 2.54845 4.42056 2.54845L10.5554 2.54846C10.8762 2.54846 11.1468 2.58664 11.3673 2.663C11.5678 2.72027 11.7282 2.86344 11.8485 3.09251C11.9688 3.3025 12.059 3.59839 12.1191 3.98018C12.1592 4.36197 12.1793 4.86784 12.1793 5.4978L12.1693 7.84581C12.1693 8.24669 12.1292 8.67621 12.049 9.13435C11.9888 9.57341 11.8685 9.99338 11.6881 10.3943C11.5077 10.7761 11.2571 11.1006 10.9363 11.3678Z" fill="#FAFAFA"/>
<path d="M20 12.7863C20 12.3507 20.163 11.9877 20.4889 11.6974C20.8148 11.3888 21.1887 11.2346 21.6105 11.2346C21.9748 11.2346 22.3199 11.3888 22.6458 11.6974C22.9909 11.9877 23.1635 12.3507 23.1635 12.7863C23.1635 13.2582 22.9909 13.6302 22.6458 13.9024C22.3199 14.1747 21.9748 14.3108 21.6105 14.3108C21.1887 14.3108 20.8148 14.1747 20.4889 13.9024C20.163 13.6302 20 13.2582 20 12.7863ZM20 24.4755C20 24.0399 20.163 23.677 20.4889 23.3866C20.8148 23.078 21.1887 22.9238 21.6105 22.9238C21.9748 22.9238 22.3199 23.078 22.6458 23.3866C22.9909 23.677 23.1635 24.0399 23.1635 24.4755C23.1635 24.9474 22.9909 25.3194 22.6458 25.5917C22.3199 25.8639 21.9748 26 21.6105 26C21.1887 26 20.8148 25.8639 20.4889 25.5917C20.163 25.3194 20 24.9474 20 24.4755Z" fill="#FAFAFA"/>
<path d="M33.1106 21.3509C32.3821 21.3509 31.7877 21.1967 31.3276 20.8881C30.8674 20.5796 30.4456 20.2711 30.0622 19.9625C29.7938 19.7266 29.5349 19.527 29.2857 19.3636C29.0365 19.1821 28.7585 19.0914 28.4517 19.0914C28.0299 19.0914 27.704 19.3092 27.4739 19.7448C27.2438 20.1622 27.148 20.6976 27.1863 21.3509H25.3745C25.317 20.5342 25.4033 19.7992 25.6334 19.1458C25.8826 18.4743 26.2565 17.948 26.7549 17.5669C27.2726 17.1676 27.8957 16.968 28.6243 16.968C29.1803 16.968 29.6691 17.1132 30.0909 17.4036C30.5127 17.6939 30.9058 17.9934 31.27 18.3019C31.5768 18.5742 31.8644 18.8192 32.1328 19.037C32.4204 19.2366 32.7176 19.3364 33.0243 19.3364C33.4653 19.3364 33.7625 19.1186 33.9158 18.6831C34.0884 18.2293 34.1651 17.6576 34.1459 16.968H35.9577C36.0536 17.8391 35.9865 18.6105 35.7564 19.282C35.5263 19.9353 35.1716 20.4435 34.6923 20.8065C34.2322 21.1694 33.7049 21.3509 33.1106 21.3509Z" fill="#FAFAFA"/>
</svg>
